<mxfile host="app.diagrams.net" agent="Mozilla/5.0 (Windows NT 10.0; Win64; x64) AppleWebKit/537.36 (KHTML, like Gecko) Chrome/132.0.0.0 Safari/537.36" version="26.0.10">
  <diagram name="Page-1" id="l_A1BoyRMLz5qFvwIhAc">
    <mxGraphModel dx="1434" dy="738" grid="1" gridSize="10" guides="1" tooltips="1" connect="1" arrows="1" fold="1" page="1" pageScale="1" pageWidth="827" pageHeight="1169" math="0" shadow="0">
      <root>
        <mxCell id="0" />
        <mxCell id="1" parent="0" />
        <mxCell id="9Sg4c4JGDe0HvogplE-y-10" style="edgeStyle=orthogonalEdgeStyle;rounded=0;orthogonalLoop=1;jettySize=auto;html=1;exitX=1;exitY=0.5;exitDx=0;exitDy=0;entryX=0;entryY=0.5;entryDx=0;entryDy=0;" parent="1" source="9Sg4c4JGDe0HvogplE-y-1" target="9Sg4c4JGDe0HvogplE-y-2" edge="1">
          <mxGeometry relative="1" as="geometry" />
        </mxCell>
        <mxCell id="9Sg4c4JGDe0HvogplE-y-11" style="edgeStyle=orthogonalEdgeStyle;rounded=0;orthogonalLoop=1;jettySize=auto;html=1;exitX=1;exitY=0.5;exitDx=0;exitDy=0;entryX=0;entryY=0.5;entryDx=0;entryDy=0;" parent="1" source="9Sg4c4JGDe0HvogplE-y-1" target="9Sg4c4JGDe0HvogplE-y-7" edge="1">
          <mxGeometry relative="1" as="geometry">
            <mxPoint x="190" y="180" as="targetPoint" />
            <Array as="points">
              <mxPoint x="191" y="80" />
              <mxPoint x="191" y="230" />
            </Array>
          </mxGeometry>
        </mxCell>
        <mxCell id="9Sg4c4JGDe0HvogplE-y-12" style="edgeStyle=orthogonalEdgeStyle;rounded=0;orthogonalLoop=1;jettySize=auto;html=1;exitX=1;exitY=0.5;exitDx=0;exitDy=0;entryX=0;entryY=0.5;entryDx=0;entryDy=0;" parent="1" edge="1">
          <mxGeometry relative="1" as="geometry">
            <mxPoint x="240" y="480" as="targetPoint" />
            <Array as="points">
              <mxPoint x="191" y="120" />
              <mxPoint x="191" y="480" />
              <mxPoint x="240" y="480" />
            </Array>
            <mxPoint x="160" y="120" as="sourcePoint" />
          </mxGeometry>
        </mxCell>
        <mxCell id="9Sg4c4JGDe0HvogplE-y-13" style="edgeStyle=orthogonalEdgeStyle;rounded=0;orthogonalLoop=1;jettySize=auto;html=1;exitX=1;exitY=0.5;exitDx=0;exitDy=0;entryX=0;entryY=0.5;entryDx=0;entryDy=0;" parent="1" source="9Sg4c4JGDe0HvogplE-y-1" target="9Sg4c4JGDe0HvogplE-y-4" edge="1">
          <mxGeometry relative="1" as="geometry">
            <mxPoint x="190" y="360" as="targetPoint" />
            <Array as="points">
              <mxPoint x="191" y="80" />
              <mxPoint x="191" y="600" />
              <mxPoint x="240" y="600" />
            </Array>
          </mxGeometry>
        </mxCell>
        <mxCell id="9Sg4c4JGDe0HvogplE-y-14" style="edgeStyle=orthogonalEdgeStyle;rounded=0;orthogonalLoop=1;jettySize=auto;html=1;exitX=1;exitY=0.5;exitDx=0;exitDy=0;entryX=0;entryY=0.5;entryDx=0;entryDy=0;" parent="1" source="9Sg4c4JGDe0HvogplE-y-1" target="9Sg4c4JGDe0HvogplE-y-5" edge="1">
          <mxGeometry relative="1" as="geometry">
            <mxPoint x="190" y="440" as="targetPoint" />
            <Array as="points">
              <mxPoint x="191" y="80" />
              <mxPoint x="191" y="360" />
              <mxPoint x="240" y="360" />
            </Array>
          </mxGeometry>
        </mxCell>
        <mxCell id="9Sg4c4JGDe0HvogplE-y-15" style="edgeStyle=orthogonalEdgeStyle;rounded=0;orthogonalLoop=1;jettySize=auto;html=1;exitX=1;exitY=0.5;exitDx=0;exitDy=0;entryX=0;entryY=0.5;entryDx=0;entryDy=0;" parent="1" source="9Sg4c4JGDe0HvogplE-y-1" target="9Sg4c4JGDe0HvogplE-y-8" edge="1">
          <mxGeometry relative="1" as="geometry">
            <mxPoint x="190" y="520" as="targetPoint" />
            <Array as="points">
              <mxPoint x="191" y="80" />
              <mxPoint x="191" y="750" />
            </Array>
          </mxGeometry>
        </mxCell>
        <mxCell id="9Sg4c4JGDe0HvogplE-y-16" style="edgeStyle=orthogonalEdgeStyle;rounded=0;orthogonalLoop=1;jettySize=auto;html=1;exitX=1;exitY=0.5;exitDx=0;exitDy=0;entryX=0;entryY=0.5;entryDx=0;entryDy=0;" parent="1" source="9Sg4c4JGDe0HvogplE-y-1" target="9Sg4c4JGDe0HvogplE-y-9" edge="1">
          <mxGeometry relative="1" as="geometry">
            <mxPoint x="190" y="610" as="targetPoint" />
            <Array as="points">
              <mxPoint x="191" y="80" />
              <mxPoint x="191" y="840" />
              <mxPoint x="240" y="840" />
            </Array>
          </mxGeometry>
        </mxCell>
        <mxCell id="9Sg4c4JGDe0HvogplE-y-1" value="Deplacer le penetrometre" style="rounded=0;whiteSpace=wrap;html=1;" parent="1" vertex="1">
          <mxGeometry x="40" y="50" width="120" height="60" as="geometry" />
        </mxCell>
        <mxCell id="9Sg4c4JGDe0HvogplE-y-2" value="Recevoir des donnés" style="rounded=0;whiteSpace=wrap;html=1;fillColor=#d5e8d4;strokeColor=#82b366;" parent="1" vertex="1">
          <mxGeometry x="240" y="50" width="120" height="60" as="geometry" />
        </mxCell>
        <mxCell id="9Sg4c4JGDe0HvogplE-y-3" value="Se géolocaliser" style="rounded=0;whiteSpace=wrap;html=1;fillColor=#d5e8d4;strokeColor=#82b366;" parent="1" vertex="1">
          <mxGeometry x="240" y="450" width="120" height="60" as="geometry" />
        </mxCell>
        <mxCell id="9Sg4c4JGDe0HvogplE-y-4" value="s&#39;orienter" style="rounded=0;whiteSpace=wrap;html=1;fillColor=#d5e8d4;strokeColor=#82b366;" parent="1" vertex="1">
          <mxGeometry x="240" y="570" width="120" height="60" as="geometry" />
        </mxCell>
        <mxCell id="9Sg4c4JGDe0HvogplE-y-5" value="Transmettre des données" style="rounded=0;whiteSpace=wrap;html=1;fillColor=#d5e8d4;strokeColor=#82b366;" parent="1" vertex="1">
          <mxGeometry x="240" y="330" width="120" height="60" as="geometry" />
        </mxCell>
        <mxCell id="esCmZ7Aqd8bEiOWQM9XK-6" style="edgeStyle=orthogonalEdgeStyle;rounded=0;orthogonalLoop=1;jettySize=auto;html=1;exitX=1;exitY=0.5;exitDx=0;exitDy=0;entryX=0;entryY=0.5;entryDx=0;entryDy=0;" parent="1" source="9Sg4c4JGDe0HvogplE-y-7" target="esCmZ7Aqd8bEiOWQM9XK-1" edge="1">
          <mxGeometry relative="1" as="geometry" />
        </mxCell>
        <mxCell id="9Sg4c4JGDe0HvogplE-y-7" value="Se déplacer en suivant une&lt;br/&gt;trajectoire" style="rounded=0;whiteSpace=wrap;html=1;fillColor=#dae8fc;strokeColor=#6c8ebf;" parent="1" vertex="1">
          <mxGeometry x="240" y="200" width="120" height="60" as="geometry" />
        </mxCell>
        <mxCell id="esCmZ7Aqd8bEiOWQM9XK-9" style="edgeStyle=orthogonalEdgeStyle;rounded=0;orthogonalLoop=1;jettySize=auto;html=1;exitX=1;exitY=0.5;exitDx=0;exitDy=0;entryX=0;entryY=0.5;entryDx=0;entryDy=0;" parent="1" source="9Sg4c4JGDe0HvogplE-y-8" target="esCmZ7Aqd8bEiOWQM9XK-2" edge="1">
          <mxGeometry relative="1" as="geometry" />
        </mxCell>
        <mxCell id="9Sg4c4JGDe0HvogplE-y-8" value="Éviter les obstacles&amp;nbsp;" style="rounded=0;whiteSpace=wrap;html=1;fillColor=#dae8fc;strokeColor=#6c8ebf;" parent="1" vertex="1">
          <mxGeometry x="240" y="720" width="120" height="60" as="geometry" />
        </mxCell>
        <mxCell id="9Sg4c4JGDe0HvogplE-y-9" value="Mesurer la valeur de&lt;br/&gt;pénétrométrie&amp;nbsp;" style="rounded=0;whiteSpace=wrap;html=1;fillColor=#dae8fc;strokeColor=#6c8ebf;" parent="1" vertex="1">
          <mxGeometry x="240" y="805" width="120" height="60" as="geometry" />
        </mxCell>
        <mxCell id="esCmZ7Aqd8bEiOWQM9XK-7" style="edgeStyle=orthogonalEdgeStyle;rounded=0;orthogonalLoop=1;jettySize=auto;html=1;exitX=1;exitY=0.5;exitDx=0;exitDy=0;entryX=0;entryY=0.5;entryDx=0;entryDy=0;" parent="1" source="esCmZ7Aqd8bEiOWQM9XK-1" target="esCmZ7Aqd8bEiOWQM9XK-4" edge="1">
          <mxGeometry relative="1" as="geometry" />
        </mxCell>
        <mxCell id="esCmZ7Aqd8bEiOWQM9XK-8" style="edgeStyle=orthogonalEdgeStyle;rounded=0;orthogonalLoop=1;jettySize=auto;html=1;exitX=1;exitY=0.5;exitDx=0;exitDy=0;entryX=0;entryY=0.5;entryDx=0;entryDy=0;" parent="1" source="esCmZ7Aqd8bEiOWQM9XK-1" target="esCmZ7Aqd8bEiOWQM9XK-5" edge="1">
          <mxGeometry relative="1" as="geometry">
            <mxPoint x="530" y="310" as="targetPoint" />
            <Array as="points">
              <mxPoint x="531" y="230" />
              <mxPoint x="531" y="310" />
            </Array>
          </mxGeometry>
        </mxCell>
        <mxCell id="esCmZ7Aqd8bEiOWQM9XK-1" value="deplacer les roues de deplacement" style="rounded=0;whiteSpace=wrap;html=1;fillColor=#dae8fc;strokeColor=#6c8ebf;" parent="1" vertex="1">
          <mxGeometry x="400" y="200" width="120" height="60" as="geometry" />
        </mxCell>
        <mxCell id="esCmZ7Aqd8bEiOWQM9XK-2" value="detecter les obstacles" style="rounded=0;whiteSpace=wrap;html=1;fillColor=#dae8fc;strokeColor=#6c8ebf;" parent="1" vertex="1">
          <mxGeometry x="400" y="720" width="120" height="60" as="geometry" />
        </mxCell>
        <mxCell id="esCmZ7Aqd8bEiOWQM9XK-4" value="avancer et reculer" style="rounded=0;whiteSpace=wrap;html=1;fillColor=#dae8fc;strokeColor=#6c8ebf;" parent="1" vertex="1">
          <mxGeometry x="560" y="200" width="120" height="60" as="geometry" />
        </mxCell>
        <mxCell id="esCmZ7Aqd8bEiOWQM9XK-5" value="tourner" style="rounded=0;whiteSpace=wrap;html=1;fillColor=#dae8fc;strokeColor=#6c8ebf;" parent="1" vertex="1">
          <mxGeometry x="560" y="280" width="120" height="60" as="geometry" />
        </mxCell>
        <mxCell id="esCmZ7Aqd8bEiOWQM9XK-10" value="Acquerir la valeur de pénétrometrie" style="rounded=0;whiteSpace=wrap;html=1;fillColor=#dae8fc;strokeColor=#6c8ebf;" parent="1" vertex="1">
          <mxGeometry x="400" y="805" width="120" height="60" as="geometry" />
        </mxCell>
        <mxCell id="jVnBWM0VVythakfCwEQr-1" value="" style="endArrow=classic;html=1;rounded=0;exitX=1;exitY=0.5;exitDx=0;exitDy=0;entryX=0;entryY=0.5;entryDx=0;entryDy=0;" parent="1" source="9Sg4c4JGDe0HvogplE-y-9" target="esCmZ7Aqd8bEiOWQM9XK-10" edge="1">
          <mxGeometry width="50" height="50" relative="1" as="geometry">
            <mxPoint x="390" y="635" as="sourcePoint" />
            <mxPoint x="440" y="585" as="targetPoint" />
          </mxGeometry>
        </mxCell>
        <mxCell id="jVnBWM0VVythakfCwEQr-3" value="LiDAR" style="ellipse;whiteSpace=wrap;html=1;" parent="1" vertex="1">
          <mxGeometry x="670" y="600" width="120" height="80" as="geometry" />
        </mxCell>
        <mxCell id="Bs7GteQz3aZ0Pau7dRVE-1" value="moteurs courant continu" style="ellipse;whiteSpace=wrap;html=1;" parent="1" vertex="1">
          <mxGeometry x="700" y="220" width="120" height="80" as="geometry" />
        </mxCell>
        <mxCell id="vENFG6YwI5S9nAASl6ad-1" value="" style="endArrow=classic;html=1;rounded=0;entryX=0;entryY=0.5;entryDx=0;entryDy=0;" edge="1" parent="1" target="jVnBWM0VVythakfCwEQr-3">
          <mxGeometry width="50" height="50" relative="1" as="geometry">
            <mxPoint x="520" y="750" as="sourcePoint" />
            <mxPoint x="650" y="750" as="targetPoint" />
            <Array as="points">
              <mxPoint x="600" y="750" />
              <mxPoint x="600" y="640" />
            </Array>
          </mxGeometry>
        </mxCell>
        <mxCell id="vENFG6YwI5S9nAASl6ad-2" value="" style="endArrow=classic;html=1;rounded=0;exitX=1;exitY=0.5;exitDx=0;exitDy=0;" edge="1" parent="1" source="9Sg4c4JGDe0HvogplE-y-4">
          <mxGeometry width="50" height="50" relative="1" as="geometry">
            <mxPoint x="390" y="550" as="sourcePoint" />
            <mxPoint x="670" y="640" as="targetPoint" />
            <Array as="points">
              <mxPoint x="510" y="600" />
              <mxPoint x="510" y="640" />
            </Array>
          </mxGeometry>
        </mxCell>
        <mxCell id="vENFG6YwI5S9nAASl6ad-3" value="" style="endArrow=classic;html=1;rounded=0;exitX=1;exitY=0.5;exitDx=0;exitDy=0;" edge="1" parent="1" source="esCmZ7Aqd8bEiOWQM9XK-4" target="Bs7GteQz3aZ0Pau7dRVE-1">
          <mxGeometry width="50" height="50" relative="1" as="geometry">
            <mxPoint x="390" y="360" as="sourcePoint" />
            <mxPoint x="440" y="310" as="targetPoint" />
            <Array as="points">
              <mxPoint x="690" y="250" />
            </Array>
          </mxGeometry>
        </mxCell>
        <mxCell id="vENFG6YwI5S9nAASl6ad-4" value="" style="endArrow=classic;html=1;rounded=0;exitX=1;exitY=0.5;exitDx=0;exitDy=0;entryX=0;entryY=0.5;entryDx=0;entryDy=0;" edge="1" parent="1" source="esCmZ7Aqd8bEiOWQM9XK-5" target="Bs7GteQz3aZ0Pau7dRVE-1">
          <mxGeometry width="50" height="50" relative="1" as="geometry">
            <mxPoint x="390" y="360" as="sourcePoint" />
            <mxPoint x="440" y="310" as="targetPoint" />
          </mxGeometry>
        </mxCell>
        <mxCell id="vENFG6YwI5S9nAASl6ad-5" value="Carte electronique&lt;div&gt;puissance&lt;/div&gt;" style="ellipse;whiteSpace=wrap;html=1;" vertex="1" parent="1">
          <mxGeometry x="680" y="890" width="120" height="80" as="geometry" />
        </mxCell>
        <mxCell id="vENFG6YwI5S9nAASl6ad-6" value="Alimenter systéme electronique" style="rounded=0;whiteSpace=wrap;html=1;fillColor=#dae8fc;strokeColor=#6c8ebf;" vertex="1" parent="1">
          <mxGeometry x="240" y="900" width="120" height="60" as="geometry" />
        </mxCell>
        <mxCell id="vENFG6YwI5S9nAASl6ad-7" value="" style="endArrow=classic;html=1;rounded=0;entryX=0;entryY=0.5;entryDx=0;entryDy=0;" edge="1" parent="1" target="vENFG6YwI5S9nAASl6ad-6">
          <mxGeometry width="50" height="50" relative="1" as="geometry">
            <mxPoint x="190" y="840" as="sourcePoint" />
            <mxPoint x="440" y="620" as="targetPoint" />
            <Array as="points">
              <mxPoint x="190" y="930" />
            </Array>
          </mxGeometry>
        </mxCell>
        <mxCell id="vENFG6YwI5S9nAASl6ad-8" value="Carte electronique aquisition de données" style="ellipse;whiteSpace=wrap;html=1;" vertex="1" parent="1">
          <mxGeometry x="670" y="795" width="120" height="80" as="geometry" />
        </mxCell>
        <mxCell id="vENFG6YwI5S9nAASl6ad-9" value="Distribuer de l&#39;energie" style="rounded=0;whiteSpace=wrap;html=1;fillColor=#dae8fc;strokeColor=#6c8ebf;" vertex="1" parent="1">
          <mxGeometry x="400" y="900" width="120" height="60" as="geometry" />
        </mxCell>
        <mxCell id="vENFG6YwI5S9nAASl6ad-10" value="" style="endArrow=classic;html=1;rounded=0;exitX=1;exitY=0.5;exitDx=0;exitDy=0;entryX=0;entryY=0.5;entryDx=0;entryDy=0;" edge="1" parent="1" source="vENFG6YwI5S9nAASl6ad-6" target="vENFG6YwI5S9nAASl6ad-9">
          <mxGeometry width="50" height="50" relative="1" as="geometry">
            <mxPoint x="390" y="670" as="sourcePoint" />
            <mxPoint x="440" y="620" as="targetPoint" />
          </mxGeometry>
        </mxCell>
        <mxCell id="vENFG6YwI5S9nAASl6ad-11" value="" style="endArrow=classic;html=1;rounded=0;exitX=1;exitY=0.5;exitDx=0;exitDy=0;entryX=0;entryY=0.5;entryDx=0;entryDy=0;" edge="1" parent="1" source="esCmZ7Aqd8bEiOWQM9XK-10" target="vENFG6YwI5S9nAASl6ad-8">
          <mxGeometry width="50" height="50" relative="1" as="geometry">
            <mxPoint x="390" y="670" as="sourcePoint" />
            <mxPoint x="440" y="620" as="targetPoint" />
          </mxGeometry>
        </mxCell>
        <mxCell id="vENFG6YwI5S9nAASl6ad-12" value="" style="endArrow=classic;html=1;rounded=0;exitX=1;exitY=0.5;exitDx=0;exitDy=0;" edge="1" parent="1" source="vENFG6YwI5S9nAASl6ad-9" target="vENFG6YwI5S9nAASl6ad-5">
          <mxGeometry width="50" height="50" relative="1" as="geometry">
            <mxPoint x="390" y="670" as="sourcePoint" />
            <mxPoint x="440" y="620" as="targetPoint" />
          </mxGeometry>
        </mxCell>
      </root>
    </mxGraphModel>
  </diagram>
</mxfile>
